<mxfile host="Electron" agent="Mozilla/5.0 (X11; Linux x86_64) AppleWebKit/537.36 (KHTML, like Gecko) draw.io/26.0.4 Chrome/128.0.6613.186 Electron/32.2.5 Safari/537.36" version="26.0.4">
  <diagram name="Page-1" id="3BZ2HugP-OUscDAfiBc2">
    <mxGraphModel dx="928" dy="856" grid="1" gridSize="10" guides="1" tooltips="1" connect="1" arrows="1" fold="1" page="1" pageScale="1" pageWidth="850" pageHeight="1100" math="0" shadow="0">
      <root>
        <mxCell id="0" />
        <mxCell id="1" parent="0" />
        <mxCell id="DqgATyL9MDXTLwC5WeC6-9" value="&amp;nbsp;listener&amp;nbsp;" style="edgeStyle=orthogonalEdgeStyle;rounded=0;orthogonalLoop=1;jettySize=auto;html=1;" edge="1" parent="1" source="DqgATyL9MDXTLwC5WeC6-11" target="DqgATyL9MDXTLwC5WeC6-8">
          <mxGeometry relative="1" as="geometry">
            <mxPoint x="320" y="525" as="sourcePoint" />
          </mxGeometry>
        </mxCell>
        <mxCell id="DqgATyL9MDXTLwC5WeC6-6" value="EC2" style="sketch=0;outlineConnect=0;fontColor=#232F3E;gradientColor=none;fillColor=#ED7100;strokeColor=none;dashed=0;verticalLabelPosition=middle;verticalAlign=middle;align=center;html=1;fontSize=12;fontStyle=0;aspect=fixed;pointerEvents=1;shape=mxgraph.aws4.instance2;labelPosition=center;" vertex="1" parent="1">
          <mxGeometry x="840" y="486" width="78" height="78" as="geometry" />
        </mxCell>
        <mxCell id="DqgATyL9MDXTLwC5WeC6-10" value="&amp;nbsp;internal&amp;nbsp;" style="edgeStyle=orthogonalEdgeStyle;rounded=0;orthogonalLoop=1;jettySize=auto;html=1;" edge="1" parent="1" source="DqgATyL9MDXTLwC5WeC6-8" target="DqgATyL9MDXTLwC5WeC6-6">
          <mxGeometry relative="1" as="geometry" />
        </mxCell>
        <mxCell id="DqgATyL9MDXTLwC5WeC6-8" value="CLB - Classic Load Balancer" style="sketch=0;outlineConnect=0;fontColor=#232F3E;gradientColor=none;fillColor=#8C4FFF;strokeColor=none;dashed=0;verticalLabelPosition=bottom;verticalAlign=top;align=center;html=1;fontSize=12;fontStyle=0;aspect=fixed;pointerEvents=1;shape=mxgraph.aws4.classic_load_balancer;" vertex="1" parent="1">
          <mxGeometry x="530" y="486" width="78" height="78" as="geometry" />
        </mxCell>
        <mxCell id="DqgATyL9MDXTLwC5WeC6-11" value="Client" style="sketch=0;outlineConnect=0;fontColor=#232F3E;gradientColor=none;strokeColor=#232F3E;fillColor=#ffffff;dashed=0;verticalLabelPosition=bottom;verticalAlign=top;align=center;html=1;fontSize=12;fontStyle=0;aspect=fixed;shape=mxgraph.aws4.resourceIcon;resIcon=mxgraph.aws4.client;" vertex="1" parent="1">
          <mxGeometry x="220" y="486" width="78" height="78" as="geometry" />
        </mxCell>
      </root>
    </mxGraphModel>
  </diagram>
</mxfile>
